<svg xmlns="http://www.w3.org/2000/svg" viewBox="0 0 339.84 83.92"><defs><style>.cls-1,.cls-2{fill:none;}.cls-1{stroke:#b50027;stroke-width:1.97px;}.cls-2{stroke:#000;stroke-width:0.18px;opacity:0.18;}.cls-3{fill:#b50027;}</style></defs><title>bistro_babushka</title><g id="Lag_2" data-name="Lag 2"><path class="cls-1" d="M287.86,47.61l5.23-3.33c-1.37-11.2,2.06-21.1,8.28-24.68A11.87,11.87,0,0,1,309,18.24,12.54,12.54,0,0,1,316.81,20c6.23,3.88,9.52,13.76,8.14,24.76a40.49,40.49,0,0,1,2.71,20.84,37.86,37.86,0,0,1-6.3,16.46,111.11,111.11,0,0,1-12.27.77,110.9,110.9,0,0,1-12.27-.6,71.44,71.44,0,0,1-4-8.58,74.19,74.19,0,0,1-3.44-11.54"/><path d="M219,71h2.6c1.88,0,3.16.63,3.16,2.24a2,2,0,0,1-1.61,2v.06c1.34.21,2.12.94,2.12,2.2,0,1.8-1.4,2.69-3.46,2.69H219Zm2.41,3.86c1.57,0,2.2-.5,2.2-1.52S222.91,72,221.49,72h-1.3v2.88Zm.24,4.35c1.57,0,2.48-.52,2.48-1.77s-.87-1.6-2.48-1.6h-1.49v3.37Z"/><path d="M230.46,74.29H227.3v-.94h4.32v6.81h-1.16ZM230,71a.93.93,0,1,1,.93.9A.87.87,0,0,1,230,71Z"/><path d="M235.44,79.26l.53-.77a4.85,4.85,0,0,0,2.95.92c1.15,0,1.71-.47,1.71-1s-.26-.88-2.11-1.26-2.66-1-2.66-2,1-1.93,2.83-1.93a5.12,5.12,0,0,1,2.74.87l-.56.74a4,4,0,0,0-2.28-.71c-1.15,0-1.57.46-1.57,1s.59.84,2,1.13c2.25.49,2.8,1,2.8,2.1s-1.08,2-3,2A6,6,0,0,1,235.44,79.26Z"/><path d="M245.73,77.51V74.29H243.8v-.87l2-.07.15-2.19h1v2.19h3.33v.94h-3.33v3.23c0,1.22.41,1.85,1.72,1.85a4.55,4.55,0,0,0,1.63-.31l.25.86a6,6,0,0,1-2.13.4C246.37,80.32,245.73,79.19,245.73,77.51Z"/><path d="M253.27,73.35h1l.11,1.61h0a3.58,3.58,0,0,1,3-1.78,2.86,2.86,0,0,1,1.34.28l-.26,1a3.52,3.52,0,0,0-1.26-.22,3.19,3.19,0,0,0-2.8,2v4h-1.17Z"/><path d="M260.48,76.77a3.37,3.37,0,1,1,3.36,3.55A3.34,3.34,0,0,1,260.48,76.77Zm5.54,0c0-1.57-.87-2.62-2.18-2.62s-2.17,1-2.17,2.62.87,2.59,2.17,2.59S266,78.32,266,76.77Z"/></g><g id="Lag_3" data-name="Lag 3"><path class="cls-2" d="M170.14,74.31a1.74,1.74,0,0,0,2.28-.62,4.35,4.35,0,0,0,2.27.34,4.44,4.44,0,0,0,2.2-.92,4,4,0,0,0,1.84,1.32,2.43,2.43,0,0,0,1.78.06,2.07,2.07,0,0,0,.86-.77,2.07,2.07,0,0,0,.27.71,2.36,2.36,0,0,0,.61.64"/><path class="cls-3" d="M41,32.68c12.57,1.73,19.71,6.94,20.28,15.25,1,15.21-20.92,34.13-41.31,35.53C4.65,84.51-5,72.54,2.71,61.91,7.53,55.37,16.6,50.73,26.12,50.08l.12,1.68c-9.13.62-17.82,5-22.38,11.24C-3,72.4,5.84,82.74,19.8,81.79c19.49-1.34,40.94-19.58,40-33.76-.61-8.89-10.35-14-27.52-14.3-1.64.05-3.34.1-5,0l-.06-1.68h.12c1.75-.06,3.5,0,5.2,0C66.77,30.4,82.44.64,66.78,1.71,58.62,2.27,48.94,7.34,39.41,16,28.22,26.17,18.86,39.89,14.47,52.63L13.12,52c4.49-13,14-27,25.35-37.35C48.16,5.84,58.16.62,66.67,0,84.3-1.17,71.16,26.73,41,32.68Z"/><path class="cls-3" d="M99.88,61.21c-6.2,3.54-14.9,8-18.73,8.28-2.47.17-4-1-4.18-3.27a12.42,12.42,0,0,1,.62-4.13c-2.45,3-5.83,6.56-8.09,6.71-1.12.08-1.9-1.3-2-2.91-.26-3.86,3.2-8.63,6.59-8.86a3.76,3.76,0,0,1,3.77,2.26l1.66-2.18.73.72.47.3c-.54,1.13-2.45,5.54-2.28,8,.09,1.28.86,1.81,2.61,1.7,2.82-.2,9.52-3.18,18.18-8.11ZM69.39,67.12c1.86-.12,5-3.58,7.37-6.46a2.45,2.45,0,0,0-2.57-2c-2.54.18-5.43,4.19-5.23,7.09C69,66.5,69.28,67.13,69.39,67.12Z"/><path class="cls-3" d="M128.84,59.23c-6.27,3.54-17.22,7.27-21,7.59a8.68,8.68,0,0,1-3.12-.23,4.26,4.26,0,0,1-4.19,0c-7.35-4,10.29-32.24,21.83-43.06l.94,1.29c-13.29,12.5-27,37.66-22.14,40.3a2.45,2.45,0,0,0,1.44.36c-3.87-3.56.43-12.79,4-13,5.91-.4,4.16,8.65,0,12.76a5.59,5.59,0,0,0,1.08,0c3.66-.32,14.33-3.9,20.49-7.43Zm-24.19,5.54c3.85-2.53,6.27-11,2-10.69C103.82,54.28,100.16,62.75,104.65,64.77Z"/><path class="cls-3" d="M156.94,57.31c-6.21,3.53-14.9,8-18.73,8.27-2.48.17-4-1-4.19-3.27a4.67,4.67,0,0,1,.23-1.64c-2.11,2.16-4.42,4-6.56,4.15-2.82.19-1.58-3.2.95-8.36a22.43,22.43,0,0,0,1.68-3.61l1.41.68c-.39,1-1.09,2.34-1.78,3.75-2.09,4.22-2.66,5.88-2.38,5.86,4-.28,9.35-8.15,10.88-10.65l.05-.07.05-.07.72.6.53.35-.91,1.49c-2.4,3.85-3.49,6.13-3.4,7.42s.86,1.82,2.61,1.7c2.81-.2,9.51-3.18,18.17-8.11Z"/><path class="cls-3" d="M175.84,62.29a12.06,12.06,0,0,1-6-1.27A6.6,6.6,0,0,1,165,63.56c-3,.2-5.75-3-6.7-7-.44.23-.87.51-1.31.74l-.67-1.51c.55-.3,1.09-.66,1.63-.95a13.12,13.12,0,0,1,.17-3.38c.46-2.3,1.82-1.55,4,.69,2-1.37,4-2.8,6.15-4.3a2.78,2.78,0,0,1,2.25-2h.05a1,1,0,0,1,.58,1.77c-.49.36-.92.65-1.35,1a3.79,3.79,0,0,0,.4,1.72c1.59,3.39,1.7,6.68.57,9.22a9.85,9.85,0,0,0,5,1c6.08-.42,12.8-3.92,18.28-7.4l.78,1.5C189.2,58.21,182.15,61.86,175.84,62.29ZM159.31,54c.49-.29,1-.65,1.47-.94-1.29-1.4-1.23-1.34-1.33-1.14A8.92,8.92,0,0,0,159.31,54Zm9.2,6.24a32.21,32.21,0,0,1-6.57-6l-2.39,1.52c.68,3.38,2.92,6.27,5.29,6.11A5.38,5.38,0,0,0,168.51,60.21Zm-.21-10.48c-1.72,1.29-3.39,2.5-5.07,3.65a30.76,30.76,0,0,0,6.15,5.47,9.18,9.18,0,0,0-.53-7.73A9.28,9.28,0,0,1,168.3,49.73Z"/><path class="cls-3" d="M228.42,52.41s-16.33,9.54-23.09,10c-4.56.31-5.38-2.54-2.28-8.58,2.76-5,3.14-6.17,2-6.1-3.6.25-9.53,6.29-13.59,14l-.29.6-.06.07-1.3-.82.3-.6,17.5-35.32,1.3.82L196.29,51.89c3.05-3.44,6.24-5.67,8.66-5.83,3.38-.24,2.46,2.94-.59,8.71-2.56,4.84-2.3,6.18.86,6,6.42-.44,22.53-9.84,22.53-9.84Z"/><path class="cls-3" d="M257.76,50.34S246.43,58.43,240,58.87c-4.34.3-6.52-1.82-8.66-8.21l-.67-2.29h-.16l-4.41,9.24-1.3-.82,15.93-33.46,1.3.82L231.41,46.51c1.77-.51,5.29-2,10.85-6.83l.88,1.37c-5.29,4.57-9,6.31-11,7l.59,2c1.93,5.76,3.57,7.39,7.17,7.15C245.92,56.78,257,49,257,49Z"/><path class="cls-3" d="M288.4,48.31c-6.21,3.53-14.9,8-18.73,8.27-2.48.17-4-1-4.18-3.27a12.17,12.17,0,0,1,.62-4.13c-2.45,3-5.83,6.56-8.09,6.71-1.12.08-1.9-1.3-2-2.91-.26-3.86,3.2-8.63,6.58-8.86a3.79,3.79,0,0,1,3.78,2.26L268,44.2l.73.72.47.3c-.54,1.13-2.45,5.54-2.28,8,.09,1.28.86,1.82,2.61,1.7,2.81-.2,9.51-3.18,18.17-8.11Zm-30.49,5.9c1.86-.12,5-3.58,7.36-6.46a2.44,2.44,0,0,0-2.56-2c-2.54.18-5.43,4.19-5.23,7.09C257.52,53.59,257.79,54.22,257.91,54.21Z"/></g></svg>
